<?xml version="1.0" encoding="UTF-8"?>
<svg id="Layer_1" xmlns="http://www.w3.org/2000/svg" version="1.1" viewBox="0 0 110 135">
  <!-- Generator: Adobe Illustrator 29.1.0, SVG Export Plug-In . SVG Version: 2.1.0 Build 142)  -->
  <path d="M72.6,115H6.5c-.8,0-1.5-.7-1.5-1.5V21.5c0-.8.7-1.5,1.5-1.5h48.9c.8,0,1.5.7,1.5,1.5v16.3h15.7c.8,0,1.5.7,1.5,1.5v74.2c0,.8-.7,1.5-1.5,1.5h0ZM8,112h63.1V40.9h-15.7c-.8,0-1.5-.7-1.5-1.5v-16.3H8v89Z"/>
  <path d="M72.6,40.9c-.4,0-.8-.2-1.1-.5l-17.2-17.9c-.6-.6-.6-1.6,0-2.1s1.6-.6,2.1,0l17.2,17.9c.6.6.6,1.6,0,2.1-.3.3-.7.4-1.1.4h0Z"/>
  <path d="M52.3,50.5h-25c-.8,0-1.5-.7-1.5-1.5s.7-1.5,1.5-1.5h25c.8,0,1.5.7,1.5,1.5s-.7,1.5-1.5,1.5h0Z"/>
  <path d="M59.9,64.5H19.7c-.8,0-1.5-.7-1.5-1.5s.7-1.5,1.5-1.5h40.2c.8,0,1.5.7,1.5,1.5s-.7,1.5-1.5,1.5Z"/>
  <path d="M59.9,78.6H19.7c-.8,0-1.5-.7-1.5-1.5s.7-1.5,1.5-1.5h40.2c.8,0,1.5.7,1.5,1.5s-.7,1.5-1.5,1.5Z"/>
  <path d="M59.9,92.7H19.7c-.8,0-1.5-.7-1.5-1.5s.7-1.5,1.5-1.5h40.2c.8,0,1.5.7,1.5,1.5s-.7,1.5-1.5,1.5Z"/>
  <path d="M96.6,113.7c-.6,0-1.2-.4-1.4-.9l-6.9-16.6c0-.2-.1-.4-.1-.6v-58.3c0-3.7,3-6.7,6.7-6.7h3.4c3.7,0,6.7,3,6.7,6.7v58.4c0,.2,0,.4-.1.6l-6.9,16.6c-.2.6-.8.9-1.4.9h0ZM91.3,95.3l5.4,12.9,5.4-12.9v-58c0-2-1.6-3.6-3.6-3.6h-3.4c-2,0-3.6,1.6-3.6,3.6v58Z"/>
  <path d="M103.5,97.2h-13.7c-.8,0-1.5-.7-1.5-1.5s.7-1.5,1.5-1.5h13.7c.8,0,1.5.7,1.5,1.5s-.7,1.5-1.5,1.5Z"/>
  <path d="M103.5,45.5h-13.7c-.8,0-1.5-.7-1.5-1.5s.7-1.5,1.5-1.5h13.7c.8,0,1.5.7,1.5,1.5s-.7,1.5-1.5,1.5Z"/>
  <path d="M103.5,57.8h-13.7c-.8,0-1.5-.7-1.5-1.5s.7-1.5,1.5-1.5h13.7c.8,0,1.5.7,1.5,1.5s-.7,1.5-1.5,1.5Z"/>
</svg>