<?xml version="1.0" encoding="UTF-8"?>
<svg id="Layer_1" xmlns="http://www.w3.org/2000/svg" version="1.1" viewBox="0 0 110 135">
  <!-- Generator: Adobe Illustrator 29.1.0, SVG Export Plug-In . SVG Version: 2.1.0 Build 142)  -->
  <path d="M18.3,95.3c.1,0,11-1.1,17.5,2.2.2,0,.3.1.5.1.4,0,.8-.2,1-.6.3-.6,0-1.2-.5-1.5-5.8-2.9-14.4-2.7-17.5-2.5v-54.8h2.4c.6,0,1.1-.5,1.1-1.1s-.5-1.1-1.1-1.1h-3.4c-.6,0-1.1.5-1.1,1.1v57.1c0,.3.1.6.4.8.2.2.5.3.8.3h0Z"/>
  <path d="M88.4,38.2h2.3v54.8c-3.1-.2-11.7-.4-17.5,2.5-.5.3-.8.9-.5,1.5.2.4.6.6,1,.6s.3,0,.5-.1c6.5-3.3,17.4-2.2,17.5-2.2.3,0,.6,0,.8-.3.2-.2.4-.5.4-.8v-57.1c0-.6-.5-1.1-1.1-1.1h-3.4c-.6,0-1.1.5-1.1,1.1s.5,1.1,1.1,1.1h0Z"/>
  <path d="M100.1,41.7h-4c-.6,0-1.1.5-1.1,1.1s.5,1.1,1.1,1.1h3v56.2c-5.4-.4-27.6-1.5-41.7,5.5.9-1.8,2.3-4.3,4.5-6.8,5.4-6.4,12.7-10,21.7-10.9.5,0,1-.5,1-1.1V26.6c0-.3-.1-.6-.4-.8s-.5-.3-.8-.3c-11.9,1.2-19.1,7-23.1,11.7-2.7,3.2-4.3,6.3-5.2,8.2-.8-1.9-2.4-5-5.2-8.2-4-4.7-11.2-10.6-23.1-11.7-.3,0-.6,0-.8.3s-.4.5-.4.8v60.2c0,.6.4,1.1,1,1.1,16.3,1.6,23.6,12.6,26.1,17.7-14.2-6.9-36.2-5.9-41.6-5.5v-56.2h3c.6,0,1.1-.5,1.1-1.1s-.5-1.1-1.1-1.1h-4c-.6,0-1.1.5-1.1,1.1v58.5c0,.3.1.6.3.8.2.2.5.3.8.3.3,0,29-2.6,43.9,6.4,0,0,0,0,0,0,.2.3.6.5.9.5s.1,0,.2,0c0,0,.1,0,.2,0,.4,0,.7-.2.9-.5,0,0,0,0,0,0,14.9-9,43.6-6.4,43.9-6.4.3,0,.6,0,.8-.3.2-.2.3-.5.3-.8v-58.5c0-.6-.5-1.1-1.1-1.1h0ZM56.3,48.1s1.5-4.6,5.5-9.4c5.2-6.1,12.1-9.7,20.5-10.8v57.9c-11.3,1.4-18.3,7.1-22.1,11.6-1.8,2.2-3.2,4.3-4.1,6v-55c.1-.1.2-.3.2-.4h0ZM27.6,85.8V27.9c20.4,2.6,26,20,26,20.2,0,.2.1.3.2.4v55c-.9-1.7-2.3-3.8-4.1-6-3.9-4.6-10.9-10.2-22.1-11.6h0Z"/>
</svg>