<?xml version="1.0" encoding="UTF-8"?>
<svg id="Livello_1" xmlns="http://www.w3.org/2000/svg" version="1.1" xmlns:xlink="http://www.w3.org/1999/xlink" viewBox="0 0 240 240">
  <!-- Generator: Adobe Illustrator 29.1.0, SVG Export Plug-In . SVG Version: 2.1.0 Build 142)  -->
  <defs>
    <style>
      .st0 {
        fill: #fff;
      }

      .st1 {
        fill: #d6d6d6;
      }

      .st2 {
        fill: url(#linear-gradient);
      }

      .st3 {
        fill: #bfbfbf;
      }
    </style>
    <linearGradient id="linear-gradient" x1="120" y1="1" x2="120" y2="241" gradientTransform="translate(0 241) scale(1 -1)" gradientUnits="userSpaceOnUse">
      <stop offset="0" stop-color="#777"/>
      <stop offset="1" stop-color="#929292"/>
    </linearGradient>
  </defs>
  <circle class="st2" cx="120" cy="120" r="120"/>
  <path class="st1" d="M81.2,128.8l14.2,39.4s1.8,3.7,3.7,3.7,30.3-29.5,30.3-29.5l31.5-60.9-79.2,37.1-.5,10.2Z"/>
  <path class="st3" d="M100.1,138.9l-2.7,29s-1.1,8.9,7.8,0,17.4-15.8,17.4-15.8"/>
  <path class="st0" d="M81.5,130.2l-29.3-9.5s-3.5-1.4-2.4-4.6c.2-.7.7-1.2,2.1-2.2,6.5-4.5,120.1-45.4,120.1-45.4,0,0,3.2-1.1,5.1-.4,1,.3,1.7,1.1,1.9,2.1.2.8.3,1.7.3,2.6,0,.8-.1,1.4-.2,2.5-.7,11.2-21.4,94.5-21.4,94.5,0,0-1.2,4.9-5.7,5-2.2,0-4.3-.8-5.9-2.3-8.7-7.5-38.8-27.7-45.5-32.2-.3-.2-.5-.5-.5-.9,0-.5.4-1.1.4-1.1,0,0,52.4-46.6,53.8-51.5.1-.4-.3-.6-.8-.4-3.5,1.3-63.8,39.4-70.5,43.6-.5.1-1,.2-1.5,0Z"/>
</svg>